<svg width="26" height="20" viewBox="0 0 26 20" fill="none" xmlns="http://www.w3.org/2000/svg">
<path d="M2.6 0H23.4C24.0896 0 24.7509 0.263392 25.2385 0.732233C25.7261 1.20107 26 1.83696 26 2.5V17.5C26 18.163 25.7261 18.7989 25.2385 19.2678C24.7509 19.7366 24.0896 20 23.4 20H2.6C1.91044 20 1.24912 19.7366 0.761522 19.2678C0.273928 18.7989 0 18.163 0 17.5V2.5C0 1.83696 0.273928 1.20107 0.761522 0.732233C1.24912 0.263392 1.91044 0 2.6 0ZM2.6 2.5V17.5H11.7V2.5H2.6ZM23.4 17.5V2.5H21.788C22.1 3.175 22.035 3.8375 22.035 3.9125C21.944 4.75 21.333 5.625 21.112 5.9375L18.083 9.125L22.399 9.1L22.412 10.625L15.652 10.5875L15.6 9.3375C15.6 9.3375 19.565 5.3 19.76 4.9375C19.942 4.5875 20.683 2.5 18.85 2.5C17.251 2.5625 17.433 4.125 17.433 4.125L15.431 4.1375C15.431 4.1375 15.444 3.3125 15.925 2.5H14.3V17.5H17.654L17.641 16.425L18.902 16.4125C18.902 16.4125 20.085 16.2125 20.098 15.1C20.15 13.85 19.045 13.85 18.85 13.85C18.681 13.85 17.459 13.9125 17.459 14.9375H15.483C15.483 14.9375 15.535 12.3625 18.85 12.3625C22.23 12.3625 22.048 14.8875 22.048 14.8875C22.048 14.8875 22.1 16.45 20.605 17.0375L21.281 17.5H23.4ZM8.996 15H7.046V7.75L4.706 8.45V6.9125L8.788 5.5125H8.996V15Z" fill="#12CFFF"/>
</svg>
