<svg width="26" height="26" viewBox="0 0 26 26" fill="none" xmlns="http://www.w3.org/2000/svg">
<g clip-path="url(#clip0_286_1189)">
<path d="M12.9999 2.43762C10.7357 2.43816 8.53155 3.16628 6.71255 4.51461C4.89355 5.86294 3.55597 7.76011 2.89706 9.92635C2.23815 12.0926 2.29278 14.4132 3.05291 16.5461C3.81304 18.6789 5.23842 20.511 7.11886 21.7722C8.9993 23.0335 11.2353 23.6571 13.497 23.551C15.7588 23.445 17.9266 22.615 19.6808 21.1834C21.435 19.7518 22.6827 17.7944 23.24 15.5998C23.7973 13.4052 23.6346 11.0896 22.7759 8.9945C22.6531 8.6954 22.6541 8.35976 22.7788 8.06141C22.9034 7.76307 23.1415 7.52645 23.4405 7.40362C23.7396 7.28079 24.0753 7.28181 24.3736 7.40645C24.672 7.5311 24.9086 7.76915 25.0314 8.06825C26.17 10.8474 26.3112 13.935 25.431 16.8064C24.5509 19.6778 22.7037 22.156 20.2033 23.8197C17.7029 25.4834 14.7036 26.23 11.7151 25.9328C8.72653 25.6355 5.93309 24.3126 3.80943 22.189C1.68578 20.0653 0.362926 17.2719 0.0656587 14.2833C-0.231608 11.2948 0.51505 8.2955 2.17876 5.79512C3.84246 3.29475 6.32058 1.44754 9.19202 0.567385C12.0635 -0.312767 15.1511 -0.171565 17.9302 0.966998C18.0784 1.02771 18.2132 1.11702 18.3269 1.22982C18.4406 1.34263 18.5309 1.47672 18.5928 1.62445C18.6546 1.77218 18.6868 1.93064 18.6874 2.0908C18.6881 2.25096 18.6571 2.40967 18.5964 2.55787C18.5357 2.70608 18.4464 2.84087 18.3336 2.95456C18.2208 3.06825 18.0867 3.15861 17.939 3.22048C17.7912 3.28235 17.6328 3.31451 17.4726 3.31514C17.3125 3.31576 17.1538 3.28483 17.0055 3.22412C15.7342 2.70399 14.3736 2.43683 12.9999 2.43762ZM23.2049 2.79512C23.4332 3.02364 23.5614 3.3334 23.5614 3.65637C23.5614 3.97934 23.4332 4.28911 23.2049 4.51762L16.6025 11.1216C17.0516 11.9822 17.1776 12.9751 16.9578 13.9206C16.7381 14.866 16.1871 15.7016 15.4046 16.2759C14.622 16.8502 13.6597 17.1254 12.6919 17.0516C11.724 16.9778 10.8146 16.5598 10.1282 15.8735C9.44184 15.1871 9.02391 14.2777 8.95009 13.3098C8.87627 12.3419 9.15143 11.3796 9.72577 10.5971C10.3001 9.8146 11.1356 9.26358 12.0811 9.04383C13.0266 8.82407 14.0195 8.95011 14.88 9.39912L21.4824 2.79512C21.7109 2.56689 22.0207 2.4387 22.3437 2.4387C22.6666 2.4387 22.9764 2.56689 23.2049 2.79512ZM11.3749 13.0001C11.3749 13.4311 11.5461 13.8444 11.8509 14.1492C12.1556 14.4539 12.5689 14.6251 12.9999 14.6251C13.4309 14.6251 13.8442 14.4539 14.149 14.1492C14.4537 13.8444 14.6249 13.4311 14.6249 13.0001C14.6249 12.5691 14.4537 12.1558 14.149 11.8511C13.8442 11.5463 13.4309 11.3751 12.9999 11.3751C12.5689 11.3751 12.1556 11.5463 11.8509 11.8511C11.5461 12.1558 11.3749 12.5691 11.3749 13.0001Z" fill="#12CFFF"/>
</g>
<defs>
<clipPath id="clip0_286_1189">
<rect width="26" height="26" fill="white"/>
</clipPath>
</defs>
</svg>
