<svg width="20" height="20" viewBox="0 0 20 20" fill="none" xmlns="http://www.w3.org/2000/svg">
<path fill-rule="evenodd" clip-rule="evenodd" d="M9.8847 12.5457L16.5348 19.1958C16.8876 19.5487 17.3662 19.7469 17.8653 19.7469C18.3643 19.7469 18.8429 19.5487 19.1958 19.1958C19.5487 18.8429 19.7469 18.3643 19.7469 17.8653C19.7469 17.3663 19.5487 16.8876 19.1958 16.5348L12.5432 9.88472L19.1945 3.23466C19.3692 3.05993 19.5077 2.85252 19.6022 2.62426C19.6967 2.396 19.7453 2.15137 19.7452 1.90433C19.7451 1.65729 19.6964 1.41268 19.6018 1.18446C19.5072 0.956249 19.3686 0.748901 19.1939 0.574258C19.0192 0.399615 18.8118 0.261097 18.5835 0.166612C18.3552 0.0721273 18.1106 0.0235266 17.8636 0.0235848C17.6165 0.023643 17.3719 0.0723588 17.1437 0.166951C16.9155 0.261543 16.7081 0.40016 16.5335 0.574885L9.8847 7.22494L3.23464 0.574885C3.0612 0.395148 2.85371 0.251751 2.62426 0.153062C2.39482 0.0543721 2.14801 0.00236619 1.89825 7.88825e-05C1.64849 -0.00220843 1.40078 0.0452683 1.16956 0.139739C0.93835 0.23421 0.728265 0.373783 0.551567 0.550313C0.37487 0.726844 0.235099 0.936798 0.140411 1.16792C0.045722 1.39905 -0.00198832 1.64672 6.34743e-05 1.89648C0.00211527 2.14624 0.0538879 2.39309 0.152361 2.62263C0.250834 2.85217 0.394035 3.0598 0.573609 3.2334L7.22618 9.88472L0.574863 16.536C0.39529 16.7096 0.252089 16.9173 0.153615 17.1468C0.0551424 17.3763 0.0033692 17.6232 0.0013174 17.873C-0.000734395 18.1227 0.0469759 18.3704 0.141665 18.6015C0.236353 18.8326 0.376124 19.0426 0.552821 19.2191C0.729518 19.3957 0.939604 19.5352 1.17082 19.6297C1.40203 19.7242 1.64975 19.7716 1.89951 19.7694C2.14927 19.7671 2.39607 19.7151 2.62552 19.6164C2.85496 19.5177 3.06246 19.3743 3.23589 19.1945L9.8847 12.5457Z" fill="white"/>
</svg>
