<svg width="28" height="28" viewBox="0 0 28 28" fill="none" xmlns="http://www.w3.org/2000/svg">
<path fill-rule="evenodd" clip-rule="evenodd" d="M4.00483 12.0099C4.00483 9.8864 4.84838 7.8499 6.3499 6.34837C7.85143 4.84684 9.88794 4.00329 12.0114 4.00329C14.1349 4.00329 16.1714 4.84684 17.6729 6.34837C19.1745 7.8499 20.018 9.8864 20.018 12.0099C20.018 14.1334 19.1745 16.1699 17.6729 17.6714C16.1714 19.1729 14.1349 20.0165 12.0114 20.0165C9.88794 20.0165 7.85143 19.1729 6.3499 17.6714C4.84838 16.1699 4.00483 14.1334 4.00483 12.0099ZM12.0114 2.2711e-07C10.1213 -0.000240978 8.25775 0.445652 6.57243 1.30141C4.8871 2.15718 3.42755 3.39864 2.31249 4.92484C1.19742 6.45105 0.458334 8.21889 0.155327 10.0846C-0.147681 11.9503 -0.00604996 13.8612 0.568701 15.6618C1.14345 17.4625 2.13509 19.102 3.46298 20.4472C4.79086 21.7923 6.41748 22.805 8.21056 23.403C10.0036 24.0009 11.9125 24.1672 13.782 23.8883C15.6514 23.6094 17.4287 22.8932 18.9691 21.7979L24.6078 27.4366C24.9853 27.8012 25.4909 28.0029 26.0157 27.9984C26.5406 27.9938 27.0426 27.7833 27.4137 27.4122C27.7849 27.0411 27.9954 26.539 27.9999 26.0142C28.0045 25.4894 27.8027 24.9838 27.4381 24.6063L21.8015 18.9696C23.0791 17.1729 23.8375 15.0591 23.9935 12.8599C24.1496 10.6608 23.6973 8.46111 22.6861 6.50195C21.675 4.54279 20.1442 2.89976 18.2613 1.75289C16.3784 0.606019 14.2161 -0.000428454 12.0114 2.2711e-07Z" fill="#12CFFF"/>
</svg>
