<svg width="196" height="41" viewBox="0 0 196 41" fill="none" xmlns="http://www.w3.org/2000/svg">
<path fill-rule="evenodd" clip-rule="evenodd" d="M0 10.8951C0 22.4714 0.112418 24.2805 1.00024 26.999C3.84803 35.7185 12.2672 41.4827 21.3514 40.9319C28.8803 40.4753 35.554 35.7245 38.6004 28.6527C39.4581 26.6619 40.1133 23.8042 40.1177 22.035L40.1208 20.7971H26.9127C13.7916 20.7971 13.7046 20.7945 13.7046 20.3968C13.7046 19.9987 13.774 19.9969 26.9127 20.0502C34.1772 20.0797 40.0968 20.0316 40.0672 19.9434C40.0376 19.8551 37.9597 18.9424 35.4493 17.915C30.0779 15.7171 29.8096 15.5828 28.8032 14.5903C26.8623 12.6759 26.3955 9.63857 27.6574 7.13459C29.6211 3.23761 34.931 2.4701 38.0173 5.637C38.9786 6.62338 39.7236 8.27328 39.7236 9.41574C39.7236 9.79286 39.8146 10.1014 39.926 10.1014C40.0589 10.1014 40.1099 8.55751 40.075 5.59541L40.0215 1.08937L38.234 0.613415C36.7324 0.213715 35.9538 0.134884 33.3678 0.120425C30.7425 0.105966 30.0428 0.170338 28.6145 0.55756C24.7605 1.60276 22.0156 3.17879 19.2552 5.93133C16.6353 8.54424 15.1071 11.0934 14.084 14.558C13.7338 15.7436 13.7328 15.7274 13.7187 7.87319L13.7046 0H6.85232H0V10.8951ZM101.295 16.0435V32.087H103.905H106.514L106.376 30.5696L106.238 29.0522L107.03 30.051C108.335 31.6968 109.871 32.5754 111.962 32.8707C114.927 33.2898 117.491 32.3876 119.539 30.2045C125.07 24.308 123.084 12.9786 116.107 10.6291C114.79 10.1858 111.829 10.1866 110.517 10.6307C109.162 11.0892 107.764 11.9799 107.056 12.837L106.459 13.5589V6.77946V0H103.877H101.295V16.0435ZM58.8902 10.5877C56.6248 11.168 55.0096 12.2853 54.1192 13.8887C53.5681 14.881 53.5276 15.0967 53.5276 17.0338C53.5276 18.9523 53.5705 19.1862 54.0807 20.052C54.385 20.5679 54.966 21.2158 55.3717 21.4915C56.4026 22.1919 58.7735 23.0725 60.9877 23.5774C65.568 24.6216 66.974 25.3707 66.974 26.7667C66.974 27.7099 66.4663 28.4479 65.4639 28.9618C64.818 29.2932 64.2815 29.3806 62.8626 29.3857C59.5824 29.3976 57.926 28.3801 57.4948 26.0885L57.3563 25.3527H54.8784H52.4002L52.5408 26.1944C53.0972 29.5269 55.3169 31.7518 58.9381 32.6069C60.5386 32.9848 64.581 33.0353 66.0405 32.6958C68.4795 32.1282 70.4997 30.6367 71.3674 28.7628C71.9953 27.407 71.9907 24.4223 71.3587 23.2426C70.4278 21.5044 68.724 20.6377 64.2529 19.6281C59.2901 18.5074 57.9965 17.8051 57.9965 16.2307C57.9965 15.7038 58.1448 15.3552 58.5349 14.9664C59.3973 14.1062 60.2988 13.8204 62.1853 13.8091C64.9002 13.7926 66.26 14.6816 66.691 16.7543L66.852 17.529L69.1773 17.5848L71.5025 17.6405L71.5035 16.7926C71.5067 13.9794 69.0708 11.414 65.6147 10.5907C64.1661 10.2456 60.2323 10.2439 58.8902 10.5877ZM82.2112 10.601C79.3342 11.2976 77.4765 12.7041 76.4495 14.963C75.4895 17.074 75.4526 17.0338 78.3522 17.0338H80.8322L81.1422 16.2938C81.8711 14.5544 83.2432 13.8283 85.8141 13.822C88.3231 13.8156 89.7136 14.617 89.8993 16.1766C90.1056 17.9099 89.0782 18.651 85.856 19.0931C79.4484 19.9723 77.442 20.6422 76.2389 22.3042C75.3167 23.578 75.0021 24.7935 75.1201 26.6256C75.1878 27.6796 75.3668 28.4053 75.7531 29.1926C77.9514 33.6733 84.9998 34.336 89.0321 30.4414L90.1223 29.3883L90.3641 30.7377L90.606 32.087H93.2692C94.734 32.087 95.9325 32.0563 95.9325 32.019C95.9325 31.9816 95.7446 31.4244 95.5148 30.7811C95.1351 29.7175 95.0832 28.9904 94.9446 22.7778C94.8149 16.9694 94.7386 15.7959 94.4359 14.9541C93.5247 12.4202 92.1808 11.3011 89.1795 10.5772C87.7741 10.2381 83.6517 10.2522 82.2112 10.601ZM133.724 10.5841C130.357 11.3978 127.567 13.9089 126.293 17.2735C125.794 18.59 125.571 22.6991 125.903 24.4614C126.649 28.4273 129.706 31.552 133.869 32.6049C135.593 33.0412 138.931 33.043 140.601 32.6089C143.235 31.9237 145.462 30.2118 146.649 27.9594C147.742 25.8853 147.794 25.9469 144.935 25.9469H142.495L142.14 26.5464C140.987 28.4922 138.71 29.4297 135.991 29.0783C133.158 28.7121 131.266 26.6779 130.82 23.5205L130.716 22.7778H139.172H147.629L147.508 20.6486C147.441 19.4774 147.258 18.0658 147.102 17.5112C146.134 14.0786 143.505 11.4897 140.096 10.6133C138.63 10.2363 135.228 10.2207 133.724 10.5841ZM156.61 10.6739C154.26 11.3564 152.756 12.4917 151.911 14.2217C151.265 15.5424 151.26 18.5207 151.901 19.7452C152.882 21.6181 154.496 22.4644 159.391 23.6723C162.405 24.416 164.194 25.0962 164.684 25.685C165.127 26.2176 164.988 27.6597 164.437 28.2462C163.636 29.0981 162.749 29.3643 160.664 29.3786C158.967 29.3901 158.636 29.331 157.625 28.8383C156.461 28.27 155.518 27.1628 155.518 26.3632C155.518 25.3873 155.425 25.3527 152.828 25.3527H150.379L150.492 26.0954C150.672 27.2705 151.477 29.091 152.211 29.9819C153.118 31.0835 155.069 32.1957 156.789 32.591C158.716 33.0341 162.561 33.043 164.236 32.6083C165.981 32.1553 167.313 31.3886 168.346 30.2429C169.41 29.0633 169.82 27.8115 169.814 25.7623C169.804 22.2018 168.063 20.8446 161.806 19.519C158.925 18.9085 157.359 18.311 156.561 17.5171C155.443 16.4055 155.838 15.1084 157.563 14.2312C158.201 13.9061 158.747 13.8158 160.076 13.8146C162.879 13.8122 164.165 14.6039 164.653 16.6321L164.895 17.6403L167.208 17.5846L169.52 17.529L169.464 16.5386C169.385 15.1585 168.422 13.2545 167.375 12.4083C165.467 10.8652 163.497 10.2999 160.086 10.3166C158.528 10.3243 157.423 10.4378 156.61 10.6739ZM183.774 10.6808C182.476 11.1219 181.313 11.9159 180.434 12.9606L179.757 13.7657L179.753 12.4287L179.749 11.0918H177.167H174.585V26.0459V41H177.167H179.749V35.3646V29.729L180.695 30.6724C181.216 31.1913 182.176 31.8778 182.83 32.1979C183.961 32.7515 184.147 32.7802 186.602 32.7802C189.05 32.7802 189.245 32.7503 190.375 32.2022C192.63 31.1089 194.656 28.6039 195.57 25.7805C196.046 24.3094 196.153 20.1504 195.759 18.387C194.906 14.5655 192.338 11.5194 189.2 10.6099C187.76 10.1924 185.109 10.2268 183.774 10.6808ZM139.132 14.2615C140.539 14.8881 141.567 16.1617 142.112 17.9536C142.273 18.4827 142.406 18.9824 142.407 19.064C142.408 19.1456 139.765 19.2126 136.534 19.2126H130.659L130.799 18.5688C131.139 16.9996 132.604 15.0171 133.933 14.328C135.293 13.6229 137.631 13.593 139.132 14.2615ZM114.302 14.7444C116.512 16.0358 117.774 19.6903 117.194 23.1198C116.421 27.6918 113.035 30.0742 109.68 28.4071C107.49 27.3187 106.435 25.0191 106.44 21.3483C106.445 18.347 107.179 16.5081 108.98 14.9848C110.235 13.9232 112.706 13.8115 114.302 14.7444ZM186.999 14.7337C188.266 15.3324 189.125 16.2408 189.786 17.6831C191.204 20.7779 190.752 25.1809 188.777 27.5102C187.543 28.9654 184.969 29.5384 183.225 28.7463C182.375 28.3603 181.159 27.1404 180.654 26.1665C179.783 24.4873 179.518 21.304 180.059 19.0173C180.96 15.2049 184.01 13.3222 186.999 14.7337ZM89.9654 24.0595C89.5066 26.6789 88.6603 27.9776 86.8588 28.8276C85.8687 29.2946 85.5591 29.3439 84.0023 29.2831C82.1391 29.2104 81.5903 28.9729 80.7783 27.8883C79.9592 26.7944 80.1702 24.5606 81.1663 23.7792C81.8811 23.2187 83.5167 22.649 85.7428 22.1854C86.8062 21.9639 88.2156 21.5321 88.8748 21.2255L90.0733 20.6684L90.1404 21.6736C90.1774 22.2264 90.0985 23.3001 89.9654 24.0595ZM17.9291 22.894C23.598 25.2934 23.9192 25.461 24.8449 26.5026C26.0887 27.9024 26.4811 28.925 26.4937 30.7995C26.5024 32.1072 26.4132 32.5798 25.9832 33.5041C25.3689 34.8252 24.2612 35.9592 22.9162 36.6443C21.5783 37.3256 18.8479 37.3542 17.4277 36.7017C16.2428 36.1572 14.9261 34.8395 14.2918 33.563C13.8135 32.6009 13.803 32.473 13.7408 26.8877C13.7058 23.7558 13.7299 21.1932 13.7942 21.1932C13.8584 21.1932 15.7192 21.9586 17.9291 22.894Z" fill="#12CFFF"/>
</svg>
